<svg id="Layer_1" data-name="Layer 1" xmlns="http://www.w3.org/2000/svg" viewBox="0 0 304.42 101.55"><defs><style>.cls-1{fill:#33a4dc;}.cls-2{fill:#e1a631;}</style></defs><title>logo</title><g id="Acesso_preferencial" data-name="Acesso preferencial"><path class="cls-1" d="M428.44,399.87c-13.68,0-27,14-29.78,31.29s6.08,31.29,19.76,31.29,27-14,29.78-31.29S442.12,399.87,428.44,399.87Zm3.64,32.59c-2.72,9.75-8.79,17-13.57,16.13s-6.45-9.43-3.74-19.18,8.79-17,13.57-16.13S434.8,422.7,432.08,432.45Z" transform="translate(-144.29 -370)"/><path class="cls-1" d="M252.5,443.4a1.51,1.51,0,0,0-1.18.57c-2.56,3.24-5.45,5.05-8,4.61-4.78-.84-6.45-9.43-3.74-19.18s8.79-17,13.57-16.13c2.58,0.45,4.25,3.16,4.82,7.08a1.51,1.51,0,0,0,1.49,1.29h12.19a1.52,1.52,0,0,0,1.5-1.74c-1.7-11.72-9.37-20-19.91-20-13.68,0-27,14-29.78,31.29s6.08,31.29,19.76,31.29c9.54,0,18.9-6.81,24.64-16.79a1.51,1.51,0,0,0-1.32-2.26H252.5Z" transform="translate(-144.29 -370)"/><path class="cls-1" d="M301.52,399.87c-13.68,0-27,14-29.78,31.29s6.08,31.29,19.76,31.29c9.54,0,18.9-6.81,24.64-16.79a1.51,1.51,0,0,0-1.32-2.26H300.75a1.51,1.51,0,0,0-1.18.57c-2.56,3.24-5.45,5.05-8,4.61-3.29-.58-5.11-4.84-5-10.62H318.5a1.52,1.52,0,0,0,1.45-1.07,42.39,42.39,0,0,0,1.33-5.73C324,413.88,315.2,399.87,301.52,399.87Zm-10.46,24.49a0.91,0.91,0,0,1-.82-1.3c3.09-6.34,7.52-10.44,11.18-9.79,3.21,0.57,5,4.62,5,10.18a0.91,0.91,0,0,1-.91.91H291.07Z" transform="translate(-144.29 -370)"/><path class="cls-1" d="M381,416.35c1.35-3.38,8.35-2.38,13.93.93a1.51,1.51,0,0,0,2.27-1.06l2-12.82a1.5,1.5,0,0,0-1-1.66,41,41,0,0,0-11.77-1.88c-16.49.1-22.46,13.54-22,22,0.71,12.62,14.83,18.14,14.06,24.28-0.58,4.66-10.68,3.51-17.35-.8a1.51,1.51,0,0,0-2.31,1l-2,12.71a1.52,1.52,0,0,0,1.13,1.71c21.4,5.35,34.13-1.74,36.7-11.45,1.52-5.75,1.12-12.11-5.5-19.23C383.66,424.12,379.13,420.93,381,416.35Z" transform="translate(-144.29 -370)"/><path class="cls-1" d="M341.28,416.35c1.35-3.38,8.35-2.38,13.93.93a1.51,1.51,0,0,0,2.27-1.06l2-12.82a1.5,1.5,0,0,0-1-1.66,41,41,0,0,0-11.77-1.88c-16.49.1-22.46,13.54-22,22,0.71,12.62,14.83,18.14,14.06,24.28-0.58,4.66-10.68,3.51-17.35-.8a1.51,1.51,0,0,0-2.31,1l-2,12.71a1.52,1.52,0,0,0,1.13,1.71c21.4,5.35,34.13-1.74,36.7-11.45,1.52-5.75,1.12-12.11-5.5-19.23C344,424.12,339.45,420.93,341.28,416.35Z" transform="translate(-144.29 -370)"/><path class="cls-1" d="M181.75,423.65c4.83-15.23,9.15-28.92,9.15-28.92a0.61,0.61,0,0,1,1.19.16l1.08,20.53a225,225,0,0,1,24-14l-1.61-30.68a0.84,0.84,0,0,0-.92-0.77H177.44a0.84,0.84,0,0,0-.87.54s-16.34,53.69-25.86,84A174.74,174.74,0,0,1,181.75,423.65Z" transform="translate(-144.29 -370)"/><path class="cls-1" d="M193.93,429.9l2.14,40.5c0,0.49.43,0.59,0.92,0.59h22.91c0.53,0,.94-0.17.92-0.69L217.59,409A144.63,144.63,0,0,0,193.93,429.9Z" transform="translate(-144.29 -370)"/><path class="cls-2" d="M144.43,470.15c32.63-52.07,91.66-80.13,154.35-91.33-54.62,13.91-101.36,35.46-127.09,92.2a0.92,0.92,0,0,1-.83.54H145.21A0.92,0.92,0,0,1,144.43,470.15Z" transform="translate(-144.29 -370)"/></g></svg>